<?xml version="1.0" encoding="UTF-8"?>
<svg version="1.1" xmlns="http://www.w3.org/2000/svg" width="1000" height="1000">
<path d="M0 0 C1.0248953 -0.00235223 2.04979059 -0.00470446 3.10574332 -0.00712797 C6.54425128 -0.0137914 9.98272122 -0.01336055 13.42123508 -0.01294994 C15.90995181 -0.01625024 18.39866801 -0.01997616 20.88738352 -0.02409142 C27.01286644 -0.03305146 33.13833807 -0.03733613 39.26382665 -0.03961039 C46.60294605 -0.04257776 53.94205592 -0.05127847 61.28117031 -0.06002467 C79.0220106 -0.08085127 96.76285253 -0.09133719 114.5037022 -0.10015428 C122.90311536 -0.10436449 131.30252781 -0.10958606 139.70194038 -0.11483881 C168.4749039 -0.13273001 197.24786763 -0.14772317 226.02083588 -0.155159 C227.82669688 -0.15563375 229.63255789 -0.15610964 231.4384189 -0.15658666 C232.33393444 -0.15682303 233.22944999 -0.15705941 234.15210236 -0.15730295 C238.68896191 -0.1585041 243.22582146 -0.15971957 247.76268101 -0.16094494 C248.66302361 -0.16118509 249.56336622 -0.16142524 250.49099193 -0.16167267 C279.65489908 -0.16955827 308.81876546 -0.1929743 337.98265481 -0.22550088 C368.84193903 -0.25985523 399.70119942 -0.27951545 430.56050307 -0.28280324 C433.95320357 -0.28322075 437.34590406 -0.2837003 440.73860455 -0.28422642 C441.99160197 -0.28441121 441.99160197 -0.28441121 443.26991246 -0.28459973 C456.67275069 -0.28692508 470.07554134 -0.30254808 483.47836266 -0.32306826 C496.97185259 -0.34339814 510.4652858 -0.34876993 523.95878821 -0.33929763 C531.95873613 -0.33410996 539.95849425 -0.33982944 547.95841457 -0.3618323 C553.95769651 -0.37707437 559.95676953 -0.37100288 565.95606262 -0.35716178 C568.36406179 -0.35479988 570.77207972 -0.35903443 573.18005037 -0.37099043 C633.20152713 -0.65025659 688.1641928 22.84510023 730.80882359 64.88422108 C739.26671846 73.39964722 746.82203181 82.24824516 753.62132359 92.13422108 C754.36986607 93.21292469 754.36986607 93.21292469 755.13353062 94.3134203 C777.53098036 127.00838301 792.81833634 167.55680351 792.75554466 207.51289749 C792.75789689 208.53779279 792.76024912 209.56268808 792.76267263 210.61864081 C792.76933606 214.05714877 792.76890521 217.49561871 792.76849461 220.93413258 C792.7717949 223.4228493 792.77552082 225.9115655 792.77963609 228.40028101 C792.78859612 234.52576393 792.79288079 240.65123557 792.79515505 246.77672414 C792.79812242 254.11584354 792.80682313 261.45495341 792.81556933 268.7940678 C792.83639593 286.53490809 792.84688185 304.27575002 792.85569894 322.01659969 C792.85990915 330.41601285 792.86513073 338.8154253 792.87038347 347.21483787 C792.88827468 375.98780139 792.90326783 404.76076512 792.91070366 433.53373337 C792.91117841 435.33959438 792.9116543 437.14545538 792.91213132 438.95131639 C792.91248589 440.29458971 792.91248589 440.29458971 792.91284761 441.66499985 C792.91404877 446.20185941 792.91526423 450.73871895 792.9164896 455.2755785 C792.91672975 456.1759211 792.9169699 457.07626371 792.91721733 458.00388942 C792.92510293 487.16779657 792.94851896 516.33166295 792.98104555 545.4955523 C793.01539989 576.35483652 793.03506011 607.21409691 793.0383479 638.07340056 C793.03876541 641.46610106 793.03924497 644.85880155 793.03977108 648.25150204 C793.03989427 649.08683365 793.04001746 649.92216526 793.04014439 650.78280996 C793.04246974 664.18564819 793.05809274 677.58843883 793.07861293 690.99126015 C793.0989428 704.48475008 793.10431459 717.97818329 793.09484229 731.4716857 C793.08965462 739.47163362 793.0953741 747.47139174 793.11737696 755.47131206 C793.13261903 761.470594 793.12654754 767.46966702 793.11270645 773.46896011 C793.11034455 775.87695928 793.11457909 778.28497721 793.1265351 780.69294786 C793.40580125 840.71442462 769.91044443 895.67709029 727.87132359 938.32172108 C719.35589744 946.77961595 710.5072995 954.3349293 700.62132359 961.13422108 C699.54261997 961.88276356 699.54261997 961.88276356 698.44212437 962.64642811 C665.74716166 985.04387785 625.19874115 1000.33123383 585.24264717 1000.26844215 C583.70530423 1000.2719705 583.70530423 1000.2719705 582.13690385 1000.27557012 C578.69839589 1000.28223355 575.25992595 1000.2818027 571.82141209 1000.2813921 C569.33269536 1000.2846924 566.84397916 1000.28841831 564.35526365 1000.29253358 C558.22978074 1000.30149361 552.1043091 1000.30577828 545.97882052 1000.30805254 C538.63970112 1000.31101992 531.30059125 1000.31972062 523.96147686 1000.32846682 C506.22063657 1000.34929342 488.47979464 1000.35977934 470.73894498 1000.36859643 C462.33953181 1000.37280664 453.94011936 1000.37802822 445.54070679 1000.38328096 C416.76774327 1000.40117217 387.99477954 1000.41616532 359.22181129 1000.42360115 C357.41595029 1000.4240759 355.61008928 1000.42455179 353.80422827 1000.42502881 C352.90871273 1000.42526519 352.01319719 1000.42550156 351.09054481 1000.4257451 C346.55368526 1000.42694626 342.01682571 1000.42816172 337.47996616 1000.42938709 C336.12945226 1000.42974732 336.12945226 1000.42974732 334.75165524 1000.43011482 C305.58774809 1000.43800042 276.42388172 1000.46141646 247.25999236 1000.49394304 C216.40070814 1000.52829738 185.54144775 1000.5479576 154.68214411 1000.55124539 C151.2894436 1000.5516629 147.89674311 1000.55214246 144.50404263 1000.55266857 C143.25104521 1000.55285336 143.25104521 1000.55285336 141.97273471 1000.55304188 C128.56989648 1000.55536724 115.16710583 1000.57099023 101.76428451 1000.59151042 C88.27079459 1000.6118403 74.77736137 1000.61721208 61.28385896 1000.60773978 C53.28391104 1000.60255211 45.28415292 1000.6082716 37.2842326 1000.63027446 C31.28495066 1000.64551652 25.28587764 1000.63944503 19.28658455 1000.62560394 C16.87858538 1000.62324204 14.47056745 1000.62747659 12.06259681 1000.63943259 C-47.95887996 1000.91869875 -102.92154563 977.42334193 -145.56617641 935.38422108 C-154.02407129 926.86879494 -161.57938464 918.02019699 -168.37867641 908.13422108 C-168.87770473 907.41508533 -169.37673306 906.69594959 -169.89088345 905.95502186 C-192.28833319 873.26005915 -207.57568917 832.71163864 -207.51289749 792.75554466 C-207.51642584 791.21820172 -207.51642584 791.21820172 -207.52002546 789.64980134 C-207.52668889 786.21129338 -207.52625804 782.77282344 -207.52584743 779.33430958 C-207.52914773 776.84559285 -207.53287365 774.35687666 -207.53698891 771.86816114 C-207.54594895 765.74267823 -207.55023362 759.61720659 -207.55250788 753.49171802 C-207.55547525 746.15259861 -207.56417596 738.81348874 -207.57292216 731.47437435 C-207.59374876 713.73353406 -207.60423468 695.99269213 -207.61305177 678.25184247 C-207.61726198 669.8524293 -207.62248356 661.45301685 -207.6277363 653.05360428 C-207.6456275 624.28064077 -207.66062066 595.50767704 -207.66805649 566.73470879 C-207.66853124 564.92884778 -207.66900713 563.12298677 -207.66948415 561.31712576 C-207.66972053 560.42161022 -207.6699569 559.52609468 -207.67020044 558.6034423 C-207.6714016 554.06658275 -207.67261706 549.5297232 -207.67384243 544.99286366 C-207.67408258 544.09252105 -207.67432273 543.19217844 -207.67457016 542.26455273 C-207.68245576 513.10064559 -207.70587179 483.93677921 -207.73839837 454.77288985 C-207.77275272 423.91360563 -207.79241294 393.05434524 -207.79570073 362.1950416 C-207.79611824 358.80234109 -207.79659779 355.4096406 -207.79712391 352.01694012 C-207.7972471 351.1816085 -207.79737029 350.34627689 -207.79749722 349.4856322 C-207.79982257 336.08279397 -207.81544557 322.68000332 -207.83596576 309.277182 C-207.85629563 295.78369208 -207.86166742 282.29025886 -207.85219512 268.79675645 C-207.84700745 260.79680854 -207.85272693 252.79705042 -207.87472979 244.79713009 C-207.88997186 238.79784815 -207.88390037 232.79877513 -207.87005927 226.79948204 C-207.86769737 224.39148287 -207.87193192 221.98346494 -207.88388792 219.5754943 C-208.16315408 159.55401754 -184.66779726 104.59135186 -142.62867641 61.94672108 C-134.11325027 53.4888262 -125.26465233 45.93351285 -115.37867641 39.13422108 C-114.65954067 38.63519276 -113.94040493 38.13616444 -113.1994772 37.62201405 C-80.50451448 15.2245643 -39.95609398 -0.06279168 0 0 Z " fill="#000000" transform="translate(207.37867641448975,-0.13422107696533203)"/>
<path d="M0 0 C0.94182129 -0.00990463 1.88364258 -0.01980927 2.85400391 -0.03001404 C3.85995605 -0.02551239 4.8659082 -0.02101074 5.90234375 -0.01637268 C6.98306152 -0.02323593 8.0637793 -0.03009918 9.17724609 -0.03717041 C12.73158086 -0.05539615 16.28547251 -0.05160719 19.83984375 -0.0459137 C22.32031395 -0.05047708 24.80078289 -0.05578312 27.28125 -0.0617981 C32.4727086 -0.0707206 37.66401329 -0.06831521 42.85546875 -0.05836487 C49.49995608 -0.04686886 56.14391247 -0.06710149 62.78833008 -0.09628201 C67.9082373 -0.11464765 73.02801732 -0.11435088 78.14794922 -0.10864449 C80.59750107 -0.10849136 83.0470616 -0.11452855 85.49658203 -0.12693596 C88.92383957 -0.14185256 92.35011641 -0.13116315 95.77734375 -0.11402893 C96.7832959 -0.1236969 97.78924805 -0.13336487 98.82568359 -0.14332581 C105.98064829 -0.06861641 111.26306574 1.43631116 116.828125 6.02830505 C117.48361328 6.82494568 117.48361328 6.82494568 118.15234375 7.63768005 C118.60222656 8.1584613 119.05210937 8.67924255 119.515625 9.21580505 C123.06177653 15.03191198 124.28748822 20.59225772 124.22802734 27.3290863 C124.2332843 28.07818268 124.23854126 28.82727905 124.24395752 29.59907532 C124.25704917 32.04966227 124.24845849 34.4995877 124.23828125 36.95018005 C124.24030511 38.66836165 124.24321914 40.3865424 124.24697876 42.10472107 C124.25138743 45.69554367 124.24501822 49.28614151 124.23095703 52.87693787 C124.21386596 57.46324559 124.22371499 62.04902651 124.24167442 66.63531494 C124.25255178 70.18024107 124.24904786 73.72504376 124.24129105 77.26997375 C124.23929995 78.96034305 124.24170971 80.65072382 124.24872971 82.34107971 C124.25640971 84.70977667 124.24464979 87.07763852 124.22802734 89.4462738 C124.23410004 90.13430084 124.24017273 90.82232788 124.24642944 91.53120422 C124.16632013 97.74091599 122.38944535 102.7223653 119.27734375 108.07518005 C110.10328776 116.77877163 99.67049377 116.07398447 87.75379944 115.97926521 C84.50697648 115.95367955 81.26141276 115.95869772 78.01452637 115.97116089 C71.12282473 115.99183129 64.23151917 115.97227068 57.33984375 115.95018005 C49.34817332 115.92901855 41.35691174 115.92459718 33.36524963 115.95068169 C30.18001158 115.95402447 26.99556899 115.93288477 23.8104248 115.91027832 C21.84171378 115.91279134 19.87300372 115.91635313 17.90429688 115.92112732 C17.03023697 115.90824173 16.15617706 115.89535614 15.25563049 115.88208008 C2.92988517 115.9811102 -3.9362438 121.39882451 -12.28575134 129.78897095 C-13.57196104 131.09959871 -14.8578861 132.41050585 -16.14355469 133.72166443 C-17.52313154 135.10621375 -18.90405349 136.4894239 -20.28620911 137.87139893 C-23.24862442 140.83920694 -26.20131668 143.81624361 -29.14669037 146.80096436 C-33.80539799 151.5219063 -38.48493504 156.22183183 -43.16729736 160.91929626 C-50.56989697 168.3508286 -57.95791396 175.79667121 -65.3400414 183.24853468 C-78.56472813 196.59721433 -91.81395145 209.92152032 -105.06868196 223.24036074 C-109.71782899 227.91314596 -114.36053706 232.59221023 -118.99794054 237.27664948 C-121.88293506 240.18932923 -124.77193501 243.09801286 -127.66184044 246.00581932 C-128.99956539 247.35366747 -130.33552615 248.70326922 -131.66957283 250.05475807 C-133.49275756 251.90139198 -135.32210248 253.74170583 -137.15301514 255.58067322 C-137.6773406 256.11491708 -138.20166606 256.64916095 -138.74188018 257.19959402 C-146.324099 264.7775116 -153.4902632 267.57530382 -163.99076843 267.66665649 C-164.82219864 267.66410355 -165.65362885 267.6615506 -166.51025391 267.65892029 C-167.40886642 267.66414703 -168.30747894 267.66937378 -169.23332214 267.67475891 C-171.1708058 267.68494569 -173.10831642 267.69076995 -175.04582596 267.6926403 C-178.114694 267.69632237 -181.18324422 267.71309718 -184.25204468 267.73339844 C-192.9723317 267.78864958 -201.69266377 267.81953616 -210.41308594 267.84397888 C-215.75866478 267.85986108 -221.10401433 267.89007913 -226.44947433 267.92874336 C-228.48198386 267.94037888 -230.51453436 267.94632359 -232.54707718 267.94642448 C-235.38791109 267.94661675 -238.22811216 267.96489636 -241.06884766 267.98704529 C-241.90432632 267.98246811 -242.73980499 267.97789093 -243.6006012 267.97317505 C-250.96552527 268.06436504 -255.56287982 270.50661828 -260.97265625 275.51268005 C-262.26236328 276.7037738 -262.26236328 276.7037738 -263.578125 277.91893005 C-266.70088959 280.90468985 -269.75465912 283.94959803 -272.76171875 287.05174255 C-274.768909 289.00662817 -276.81245924 290.83398119 -278.93359375 292.66111755 C-283.21479228 296.37666808 -287.19246554 300.34249539 -291.16015625 304.38768005 C-295.67990937 308.9957096 -300.26947852 313.39785802 -305.16015625 317.6103363 C-308.64986903 320.7115459 -311.89232245 324.05602137 -315.16015625 327.38768005 C-319.67990937 331.9957096 -324.26947852 336.39785802 -329.16015625 340.6103363 C-332.64986903 343.7115459 -335.89232245 347.05602137 -339.16015625 350.38768005 C-343.67990937 354.9957096 -348.26947852 359.39785802 -353.16015625 363.6103363 C-356.64986903 366.7115459 -359.89232245 370.05602137 -363.16015625 373.38768005 C-367.67990937 377.9957096 -372.26947852 382.39785802 -377.16015625 386.6103363 C-380.64986903 389.7115459 -383.89232245 393.05602137 -387.16015625 396.38768005 C-391.7315333 401.04834181 -396.37604671 405.4994522 -401.32519531 409.75779724 C-404.80819845 412.85153446 -407.89624599 416.32234049 -411.05859375 419.73924255 C-420.19258264 428.101676 -430.20863941 428.11966242 -441.91796875 428.0165863 C-443.63329214 428.01741654 -445.34861543 428.01988173 -447.06393433 428.02389526 C-450.64296676 428.0267404 -454.22136893 428.01217575 -457.80029297 427.98460388 C-462.37102302 427.95047115 -466.94063117 427.95656858 -471.51141548 427.97526646 C-475.0478133 427.98586875 -478.58395313 427.97687031 -482.120327 427.96188164 C-483.80510567 427.95672651 -485.48991157 427.95714895 -487.17468643 427.96342659 C-497.31959744 427.98705101 -504.6476311 427.77264324 -512.91015625 421.20018005 C-520.24829701 412.0275041 -519.73588394 402.28611259 -519.65625 391.0712738 C-519.65640521 389.28726136 -519.65789783 387.50324859 -519.66065979 385.71923828 C-519.66203917 381.99308741 -519.64956221 378.26732362 -519.62670898 374.54124451 C-519.59830506 369.78119418 -519.6010735 365.02178523 -519.6137991 360.26168728 C-519.6207754 356.58206772 -519.6129451 352.90259469 -519.60054207 349.22299385 C-519.59604798 347.46843593 -519.59567279 345.71386217 -519.59960747 343.9593029 C-519.6025395 341.50207991 -519.58591966 339.04572113 -519.56420898 336.58860779 C-519.56871063 335.87409958 -519.57321228 335.15959137 -519.57785034 334.4234314 C-519.49042884 328.42561382 -518.19855547 322.94132874 -514.3984375 318.1806488 C-513.76292969 317.65084412 -513.12742187 317.12103943 -512.47265625 316.57518005 C-511.85003906 316.03248474 -511.22742188 315.48978943 -510.5859375 314.9306488 C-504.70594684 311.19055812 -499.30150108 310.0137116 -492.40234375 310.01878357 C-491.67275452 310.01501709 -490.94316528 310.01125061 -490.19146729 310.00737 C-488.62230711 310.00098131 -487.05310817 310.00122601 -485.48394775 310.00755501 C-482.9940843 310.01673778 -480.50496233 310.00636113 -478.01513672 309.99093628 C-470.94174209 309.95103033 -463.86841046 309.94963284 -456.79492188 309.95188904 C-452.45427626 309.9519403 -448.11403355 309.93269625 -443.77349854 309.90255547 C-441.3316376 309.8917912 -438.89056535 309.90382162 -436.44873047 309.91638184 C-434.93846883 309.90747142 -433.42821347 309.89739495 -431.91796875 309.88597107 C-429.95561279 309.88622032 -429.95561279 309.88622032 -427.95361328 309.88647461 C-420.16709501 308.86263991 -414.90889445 304.7292051 -409.55737305 299.23899841 C-408.94364932 298.62587012 -408.32992559 298.01274183 -407.69760418 297.3810339 C-405.65855165 295.3392197 -403.63413185 293.28350737 -401.609375 291.2275238 C-400.14425467 289.75472101 -398.67821671 288.28283057 -397.21133423 286.81178284 C-394.06158763 283.64941832 -390.91815714 280.48095321 -387.77944946 277.30763245 C-382.81409256 272.28808157 -377.83342119 267.28391617 -372.8503418 262.28196716 C-362.27506096 251.66232837 -351.71675507 241.02588526 -341.16015625 230.38768005 C-329.76270442 218.90212175 -318.36239554 207.41949106 -306.9424448 195.95629597 C-301.99144824 190.98539209 -297.0503644 186.00490334 -292.11668396 181.01681519 C-289.04371602 177.91396967 -285.96244729 174.81946973 -282.87888718 171.72715378 C-281.45317566 170.29396644 -280.03092012 168.85733138 -278.61244583 167.41698074 C-276.6718083 165.44736849 -274.7190581 163.49058251 -272.76293945 161.53636169 C-272.2080569 160.96709929 -271.65317434 160.39783689 -271.08147717 159.81132412 C-263.92524285 152.72882995 -256.56509626 150.23946335 -246.59301758 150.24583435 C-245.28027359 150.24062271 -245.28027359 150.24062271 -243.94100952 150.23530579 C-242.03889921 150.22795081 -240.13678034 150.22260405 -238.23465919 150.21901512 C-235.22030823 150.21184677 -232.20611977 150.19617631 -229.19181824 150.17767334 C-220.62065897 150.12522866 -212.04958768 150.07725082 -203.47827148 150.06175232 C-198.23563183 150.05165104 -192.99339967 150.02226978 -187.75092125 149.98043251 C-185.75635554 149.96814605 -183.7617322 149.96299694 -181.7671299 149.96523094 C-178.96906962 149.96759315 -176.1721705 149.94534697 -173.37426758 149.91770935 C-172.55682571 149.92431076 -171.73938385 149.93091217 -170.89717102 149.93771362 C-154.61542943 149.67488574 -143.56600383 133.92998727 -132.94287109 123.20457458 C-131.64430915 121.89752701 -130.3454784 120.59074644 -129.04640198 119.28421021 C-126.26844215 116.48964329 -123.49189283 113.69368528 -120.71632004 110.89674759 C-116.32402175 106.4716218 -111.92558867 102.05262827 -107.52578735 97.63496399 C-106.01490584 96.11782273 -104.50402442 94.60068139 -102.99314308 93.08353996 C-102.23708818 92.32436893 -101.48103327 91.5651979 -100.70206761 90.78302169 C-90.47288088 80.51092283 -80.24834332 70.23426097 -70.03808594 59.94334412 C-63.13056085 52.9813464 -56.21418644 46.02827479 -49.28754389 39.08529556 C-45.62873018 35.41711754 -41.97463488 31.74449913 -38.33140182 28.06084061 C-34.90946097 24.60102908 -31.47602426 21.15305832 -28.03347588 17.71375465 C-26.77461622 16.45192816 -25.52003155 15.18581959 -24.27014732 13.91510201 C-22.55953696 12.17725837 -20.83403419 10.45564962 -19.10409546 8.73707581 C-18.61672326 8.23445728 -18.12935107 7.73183876 -17.62721002 7.21398938 C-12.68436945 2.36872546 -6.91047565 0.02077769 0 0 Z " fill="#FDFDFD" transform="translate(701.16015625,283.61231994628906)"/>
<path d="M0 0 C0.98826279 -0.00511093 1.97652557 -0.01022186 2.99473572 -0.01548767 C6.23695053 -0.02930113 9.4789508 -0.0284331 12.72119141 -0.02612305 C14.99126259 -0.03001451 17.26133305 -0.0343501 19.53140259 -0.03910828 C24.28056197 -0.04655278 29.029647 -0.04629204 33.77880859 -0.04101562 C39.84333148 -0.03522353 45.90754871 -0.05215461 51.9720211 -0.0753603 C56.6579667 -0.09014264 61.34383944 -0.09096321 66.02980423 -0.08785057 C68.2647525 -0.08836152 70.4997051 -0.09355646 72.73463058 -0.10366249 C75.86885798 -0.11609693 79.00249965 -0.10919321 82.13671875 -0.09765625 C83.04615738 -0.10529999 83.95559601 -0.11294373 84.89259338 -0.12081909 C92.4121249 -0.06010776 100.93434891 0.82554864 107.13525391 5.4621582 C113.17649597 12.09278974 114.8446786 18.86542646 114.85888672 27.65429688 C114.86385162 28.39144928 114.86881653 29.12860168 114.87393188 29.88809204 C114.88851611 32.32294659 114.8953504 34.75773592 114.90087891 37.19262695 C114.90663485 38.89170838 114.91239253 40.5907898 114.91815186 42.28987122 C114.9286522 45.85324403 114.93450072 49.41659436 114.93798828 52.97998047 C114.94346115 57.52814024 114.96746731 62.07599885 114.99596024 66.62406445 C115.01466212 70.1355524 115.01979629 73.64696904 115.02132416 77.15850258 C115.02433583 78.83410597 115.03231373 80.50970855 115.04550934 82.18526268 C115.1897783 101.91794206 115.1897783 101.91794206 109.64697266 108.83325195 C108.90060547 109.45329102 108.15423828 110.07333008 107.38525391 110.7121582 C106.27730469 111.66928711 106.27730469 111.66928711 105.14697266 112.64575195 C99.34047419 116.50749017 93.69278659 116.56083069 86.96386719 116.5300293 C86.00048431 116.53364975 85.03710144 116.5372702 84.04452515 116.54100037 C81.9591275 116.54787701 79.87371192 116.55040306 77.78830338 116.54905319 C74.48381694 116.54808568 71.17965374 116.56105712 67.87521362 116.57803345 C58.48226412 116.62423773 49.08934835 116.64890978 39.69628906 116.65551758 C33.94448879 116.66053891 28.19302695 116.68481933 22.4413414 116.72084427 C20.25417998 116.73062628 18.06697192 116.73298298 15.87979507 116.72767258 C12.81630657 116.72058294 9.75382328 116.73792359 6.69042969 116.76049805 C5.79354431 116.75232559 4.89665894 116.74415314 3.97259521 116.73573303 C-12.74684549 116.95415282 -23.69505631 132.52729678 -34.62719727 143.54956055 C-35.93724315 144.86645127 -37.24754822 146.1830842 -38.55809021 147.4994812 C-41.36065144 150.31528363 -44.16176613 153.1325142 -46.96184349 155.95078659 C-51.39211676 160.40907761 -55.82795888 164.86179974 -60.26496887 169.31338501 C-61.78844301 170.84200154 -63.31191002 172.37062518 -64.83537006 173.89925575 C-65.59770691 174.66417815 -66.36004375 175.42910056 -67.14548171 176.21720243 C-77.46111298 186.5688048 -87.77187922 196.92521805 -98.07250977 207.29174805 C-105.04087229 214.30460153 -112.01632877 221.31031432 -118.99991399 228.30800974 C-122.68924077 232.00540253 -126.37476755 235.70641563 -130.05153465 239.41630173 C-133.50436146 242.9001841 -136.96637298 246.37466577 -140.43563271 249.84218216 C-141.70531605 251.11455974 -142.97157214 252.39036814 -144.23408508 253.66986084 C-145.96044333 255.41842282 -147.69879197 257.15414313 -149.44059753 258.88729858 C-149.93477352 259.39380805 -150.4289495 259.90031752 -150.93810052 260.42217577 C-155.28696699 264.70370773 -160.21671938 267.6445714 -166.48243713 267.65560913 C-167.23224854 267.6640686 -167.98205994 267.67252808 -168.7545929 267.6812439 C-169.95102669 267.67213486 -169.95102669 267.67213486 -171.17163086 267.6628418 C-172.46080917 267.67072723 -172.46080917 267.67072723 -173.77603149 267.67877197 C-176.59876015 267.69190673 -179.4209186 267.68325789 -182.24365234 267.6730957 C-184.214677 267.67511813 -186.18570092 267.67803097 -188.15672302 267.68179321 C-192.27976635 267.68620757 -196.40261422 267.67981341 -200.52563477 267.66577148 C-205.80380315 267.64866895 -211.0815142 267.65853327 -216.35966587 267.67648888 C-220.42693006 267.68734109 -224.49408621 267.68387395 -228.56135368 267.6761055 C-230.50736483 267.67410806 -232.45338586 267.67654672 -234.39938545 267.68354416 C-237.12060583 267.69118351 -239.84109015 267.67952019 -242.56225586 267.6628418 C-243.36190262 267.66891449 -244.16154938 267.67498718 -244.98542786 267.6812439 C-251.21439572 267.61070256 -255.28294688 266.10611563 -259.98974609 261.8371582 C-265.62447028 255.59327464 -267.47674076 250.12503037 -267.71289062 241.61181641 C-267.75278107 240.32970779 -267.79267151 239.04759918 -267.83377075 237.72663879 C-267.86777033 236.34291148 -267.90152678 234.95917818 -267.93505859 233.57543945 C-267.9763078 232.1344342 -268.01830315 230.69345013 -268.06100464 229.25248718 C-268.17094209 225.46797277 -268.26985907 221.68324544 -268.36669922 217.89837646 C-268.44690832 214.83660439 -268.53501486 211.77508435 -268.62356758 208.71354389 C-268.73015784 205.02175203 -268.83307407 201.32986111 -268.93505859 197.63793945 C-268.95417423 196.94970911 -268.97328987 196.26147877 -268.99298477 195.55239296 C-269.17455876 188.91026244 -269.33092161 182.26738448 -269.39941406 175.62304688 C-269.40987762 174.7052092 -269.42034119 173.78737152 -269.43112183 172.84172058 C-269.14791988 167.20065023 -267.56294942 162.80794603 -263.98974609 158.4621582 C-257.57274736 153.2390197 -253.39968171 151.15776198 -245.12792969 151.11694336 C-244.40067688 151.11186264 -243.67342407 151.10678192 -242.9241333 151.10154724 C-241.34451882 151.09084902 -239.76488923 151.08222669 -238.18525314 151.07542801 C-235.67889314 151.06361803 -233.17270382 151.04415714 -230.66641235 151.02230835 C-223.54003652 150.96078216 -216.41367647 150.90677566 -209.28710938 150.87329102 C-204.92629691 150.85225134 -200.56579329 150.81686916 -196.20515823 150.77253342 C-194.54914633 150.758441 -192.89307975 150.74966636 -191.23701096 150.74647903 C-171.30161567 150.70406956 -163.71743397 144.83435249 -149.86972046 130.94433594 C-148.64259962 129.71048854 -147.41551968 128.47660047 -146.18847656 127.24267578 C-144.87708364 125.92772143 -143.56545193 124.61300519 -142.25360107 123.29850769 C-139.44218921 120.48057457 -136.63229464 117.66114038 -133.82354355 114.84055519 C-129.38020281 110.37884288 -124.93244839 105.92154806 -120.48391724 101.4650116 C-107.83934726 88.79634711 -95.20073614 76.12174763 -82.56640625 63.44287109 C-75.57856926 56.4304741 -68.58713347 49.4216851 -61.59183037 42.41673583 C-57.17040693 37.98877867 -52.75352386 33.55635732 -48.3399694 29.12055743 C-45.59394557 26.3627924 -42.84373876 23.60922879 -40.09233856 20.85682869 C-38.81916291 19.5815084 -37.54770597 18.30446957 -36.27811813 17.02557755 C-34.54238738 15.27762166 -32.8005491 13.53598166 -31.05709839 11.79573059 C-30.55864532 11.29076972 -30.06019226 10.78580886 -29.54663455 10.26554614 C-20.51596727 1.29902529 -12.22081142 -0.03314338 0 0 Z " fill="#FDFDFD" transform="translate(710.30224609375,513.725341796875)"/>
<path d="M0 0 C1.51800705 -0.00503792 1.51800705 -0.00503792 3.06668091 -0.01017761 C6.40994497 -0.01967107 9.75315885 -0.02162997 13.09643555 -0.02270508 C15.42425049 -0.02591892 17.75206524 -0.02928309 20.07987976 -0.03279114 C24.9596707 -0.0387785 29.83944393 -0.04063145 34.71923828 -0.04003906 C40.9634605 -0.0399375 47.20756886 -0.05358574 53.45176411 -0.07081127 C58.26025409 -0.08194562 63.06871669 -0.08395782 67.87721825 -0.08342934 C70.1788389 -0.08460744 72.48046031 -0.08901966 74.78206825 -0.0967617 C78.00583425 -0.10658979 81.22935481 -0.10367224 84.453125 -0.09765625 C85.39833511 -0.10327576 86.34354523 -0.10889526 87.31739807 -0.11468506 C92.85700911 -0.08849669 97.60115836 0.57949018 102.9206543 2.14526367 C102.9206543 2.80526367 102.9206543 3.46526367 102.9206543 4.14526367 C103.51620117 4.24452148 104.11174805 4.3437793 104.7253418 4.44604492 C107.34237099 5.27958269 108.2880546 6.24848969 110.0456543 8.33276367 C110.54323242 8.90381836 111.04081055 9.47487305 111.5534668 10.06323242 C114.89761057 15.15588565 115.2085855 20.37506852 115.16357422 26.30615234 C115.16547256 27.10200241 115.16737091 27.89785248 115.16932678 28.71781921 C115.17301404 31.33305902 115.16236165 33.94801755 115.15112305 36.56323242 C115.14993021 38.38593005 115.1494783 40.2086283 115.1497345 42.03132629 C115.1481733 45.84335196 115.13990969 49.65528323 115.12646484 53.46728516 C115.10943936 58.35665761 115.10565176 63.2459268 115.10641003 68.13532543 C115.10613837 71.89533984 115.10065849 75.65533162 115.09340858 79.41533852 C115.09022454 81.2186904 115.08825513 83.02204485 115.08751488 84.8253994 C115.08535057 87.34116379 115.07660538 89.85681785 115.06591797 92.37255859 C115.06659775 93.49238129 115.06659775 93.49238129 115.06729126 94.63482666 C115.04794427 97.74402666 114.9117115 100.17209206 113.9206543 103.14526367 C113.2606543 103.14526367 112.6006543 103.14526367 111.9206543 103.14526367 C111.8587793 103.70213867 111.7969043 104.25901367 111.7331543 104.83276367 C110.33336285 108.81678549 107.63609855 111.15407568 104.01311588 113.24744415 C98.14639261 116.04101857 93.2964996 116.7096745 86.84619141 116.62768555 C85.40045998 116.63355431 85.40045998 116.63355431 83.92552185 116.63954163 C81.84835904 116.64548589 79.77115426 116.64240257 77.6940136 116.63111877 C74.40172381 116.61376983 71.1103053 116.62141163 67.81800842 116.63537598 C60.83133011 116.66064661 53.84485969 116.65522086 46.8581543 116.64526367 C38.75441841 116.63372088 30.65110863 116.63493532 22.54742622 116.66932678 C19.31229175 116.67640042 16.07783882 116.65977136 12.84275818 116.64221191 C10.85040932 116.64792136 8.85806322 116.65473942 6.86572266 116.6628418 C5.97355042 116.65152725 5.08137817 116.64021271 4.16217041 116.6285553 C2.90306099 116.64075356 2.90306099 116.64075356 1.61851501 116.65319824 C0.90014434 116.65169014 0.18177366 116.65018204 -0.55836582 116.64862823 C-7.48268935 118.01272656 -12.52223458 122.00120601 -17.32699585 126.94554138 C-17.90255647 127.52121213 -18.4781171 128.09688289 -19.07111895 128.68999821 C-20.98114889 130.60511317 -22.87650438 132.53409871 -24.7722168 134.46337891 C-26.14541406 135.84589819 -27.51953867 137.2274969 -28.89451599 138.60824585 C-31.84613732 141.57586211 -34.79147895 144.54952423 -37.73215866 147.52798271 C-42.38676524 152.24160768 -47.05726526 156.93926728 -51.7303772 161.63453674 C-63.33457225 173.29870688 -74.9176636 184.98377603 -86.49676514 196.67285156 C-95.49831913 205.75941726 -104.50560075 214.84014749 -113.53017676 223.90385586 C-118.17144423 228.56655494 -122.80065301 233.24080218 -127.42097068 237.92425716 C-130.30337074 240.840883 -133.19623221 243.74695932 -136.09201241 246.65029526 C-137.42747549 247.99348999 -138.7586416 249.34097359 -140.08502388 250.69313622 C-156.68551975 267.60504658 -156.68551975 267.60504658 -168.8192749 267.8117981 C-169.59361877 267.8001059 -170.36796265 267.7884137 -171.16577148 267.77636719 C-172.43615768 267.78710014 -172.43615768 267.78710014 -173.73220825 267.79804993 C-176.49692808 267.81478719 -179.25999195 267.79562686 -182.0246582 267.77416992 C-183.96418389 267.77499985 -185.90370949 267.77746389 -187.8432312 267.78147888 C-191.89301921 267.78432643 -195.94225096 267.76973524 -199.99194336 267.7421875 C-205.16797344 267.70806095 -210.34301272 267.71414818 -215.51909065 267.73285007 C-219.51870911 267.74344475 -223.51809914 267.73446059 -227.51769638 267.71946526 C-229.4257629 267.71430418 -231.33385346 267.71473989 -233.24191666 267.72101021 C-235.91236528 267.72649423 -238.58141954 267.70598807 -241.25170898 267.67871094 C-242.41929749 267.68849976 -242.41929749 267.68849976 -243.61047363 267.69848633 C-250.03706972 267.58752851 -255.21149886 265.62002726 -260.1027832 261.39916992 C-268.67780831 250.66799689 -267.33680837 237.48122656 -267.6418457 224.33276367 C-267.66169525 223.48720917 -267.6815448 222.64165466 -267.70199585 221.77047729 C-267.82409101 216.45100887 -267.93115064 211.13136253 -268.02929688 205.81140137 C-268.07859394 203.18531041 -268.13253148 200.55934257 -268.18676758 197.93334961 C-268.26877814 193.8052548 -268.3262575 189.67745306 -268.365448 185.54873657 C-268.38288876 184.00207335 -268.40711629 182.45547009 -268.43850708 180.9090271 C-268.61856671 171.63108465 -268.67053345 164.46570048 -262.33325195 157.12182617 C-261.49600586 156.45280273 -261.49600586 156.45280273 -260.6418457 155.77026367 C-259.8084668 155.07803711 -259.8084668 155.07803711 -258.95825195 154.37182617 C-254.3021917 151.33231906 -250.28082942 150.88920442 -244.76977539 150.8581543 C-244.0519841 150.85132126 -243.33419281 150.84448822 -242.59465027 150.83744812 C-241.04182799 150.82390043 -239.48896162 150.81482131 -237.93608856 150.80973816 C-235.47149866 150.80141328 -233.00727299 150.78087302 -230.54278564 150.75720215 C-225.30502682 150.70906172 -220.06723119 150.6761037 -214.8293457 150.64526367 C-208.77018135 150.60948312 -202.71119444 150.56734241 -196.65219879 150.50932312 C-194.23667444 150.48940901 -191.82128956 150.48096511 -189.40570068 150.47302246 C-168.04502918 150.3406947 -159.11347503 141.50478303 -144.57080078 126.80029297 C-143.24126559 125.46363175 -141.91125012 124.12744811 -140.58079529 122.79170227 C-137.73417936 119.93206265 -134.89061693 117.06943408 -132.04935646 114.2044735 C-127.55420383 109.6725255 -123.05018182 105.14946185 -118.54460144 100.62788391 C-105.74009093 87.77522149 -92.94758142 74.91065275 -80.16357422 62.03759766 C-73.08967539 54.91458199 -66.00858981 47.79878931 -58.91974372 40.69064838 C-54.44090391 36.19874326 -49.97121696 31.69798602 -45.50814593 27.19041574 C-42.73138707 24.39017749 -39.9462831 21.59835714 -37.15876198 18.80883598 C-35.86971773 17.51550207 -34.58411162 16.21873073 -33.30225754 14.91827011 C-31.5496329 13.14119861 -29.78500022 11.37695779 -28.016922 9.61528015 C-27.51496412 9.10030667 -27.01300624 8.58533318 -26.49583751 8.05475444 C-18.85667646 0.52237706 -10.18246311 -0.00485087 0 0 Z " fill="#FDFDFD" transform="translate(446.079345703125,215.854736328125)"/>
</svg>
